<svg width="118" height="41" viewBox="0 0 118 41" fill="none" xmlns="http://www.w3.org/2000/svg">
<g clip-path="url(#clip0_678_3574)">
<path d="M20 0.648193C8.9543 0.648193 0 9.60249 0 20.6482C11.0457 20.6482 20 11.6939 20 0.648193Z" fill="#C29B40"/>
<path d="M19.9999 40.6482C31.0456 40.6482 39.9999 31.6939 39.9999 20.6482C28.9542 20.6482 19.9999 29.6025 19.9999 40.6482Z" fill="#C29B40"/>
<path d="M19.9999 0.648193C31.0456 0.648193 39.9999 9.60249 39.9999 20.6482C28.9542 20.6482 19.9999 11.6939 19.9999 0.648193Z" fill="#23216E"/>
<path d="M20 40.6482C8.9543 40.6482 -9.65645e-07 31.6939 0 20.6482C11.0457 20.6482 20 29.6025 20 40.6482Z" fill="#23216E"/>
<path d="M53.9999 9.52319H57.5493V31.4254H53.9999V9.52319Z" fill="#23216E"/>
<path d="M75.7622 31.4254H72.3903V29.1946H72.3312C71.996 29.8899 71.4833 30.4983 70.7931 31.0198C70.103 31.5219 69.1664 31.773 67.9833 31.773C67.0368 31.773 66.2283 31.6282 65.5579 31.3385C64.9072 31.0294 64.3748 30.6238 63.9607 30.1217C63.5466 29.6002 63.2508 29.0111 63.0734 28.3544C62.8959 27.6977 62.8072 27.0121 62.8072 26.2975V17.5192H66.3565V24.5592C66.3565 24.9455 66.3762 25.3801 66.4156 25.8629C66.4551 26.3264 66.5537 26.7707 66.7114 27.1956C66.8889 27.6012 67.1452 27.9488 67.4804 28.2385C67.8354 28.5089 68.3283 28.6441 68.9593 28.6441C69.5509 28.6441 70.0438 28.5476 70.4382 28.3544C70.8523 28.1613 71.1875 27.9005 71.4438 27.5722C71.7199 27.2439 71.9171 26.8672 72.0354 26.4423C72.1537 26.0174 72.2129 25.5732 72.2129 25.1097V17.5192H75.7622V31.4254Z" fill="#23216E"/>
<path d="M86.4166 20.706L79.4363 10.9138H84.1391L89.0786 18.5042L93.9589 10.9138H98.4843L91.6223 20.706L99.2238 31.4254H94.4913L88.9603 22.763L83.4589 31.4254H78.963L86.4166 20.706Z" fill="#23216E"/>
<path d="M102.731 10.9138H116.603V14.2165H106.458V19.2575H116.07V22.5602H106.458V28.1227H117.135V31.4254H102.731V10.9138Z" fill="#23216E"/>
</g>
<defs>
<clipPath id="clip0_678_3574">
<rect width="117.135" height="40" fill="white" transform="translate(0 0.648193)"/>
</clipPath>
</defs>
</svg>
