<svg width="40" height="40" viewBox="0 0 40 40" fill="none" xmlns="http://www.w3.org/2000/svg">
<g clip-path="url(#clip0_1100_28028)">
<path d="M20 0C8.9543 0 0 8.9543 0 20C11.0457 20 20 11.0457 20 0Z" fill="#C29B40"/>
<path d="M19.9999 40C31.0456 40 39.9999 31.0457 39.9999 20C28.9542 20 19.9999 28.9543 19.9999 40Z" fill="#C29B40"/>
<path d="M19.9999 0C31.0456 0 39.9999 8.9543 39.9999 20C28.9542 20 19.9999 11.0457 19.9999 0Z" fill="#23216E"/>
<path d="M20 40C8.9543 40 -9.65645e-07 31.0457 0 20C11.0457 20 20 28.9543 20 40Z" fill="#23216E"/>
</g>
<defs>
<clipPath id="clip0_1100_28028">
<rect width="39.9999" height="40" fill="white"/>
</clipPath>
</defs>
</svg>
